<svg version="1.2" xmlns="http://www.w3.org/2000/svg" viewBox="0 0 304 304" width="304" height="304">
	<style>
		.s0 { fill: #000000 } 
		.s1 { fill: #00a8f3 } 
		.s2 { fill: #3f48d3 } 
	</style>
	<path id="Shape 1" fill-rule="evenodd" class="s0" d="m152 307c-85.71 0-155-69.28-155-155 0-85.71 69.29-155 155-155 85.72 0 155 69.29 155 155 0 85.72-69.28 155-155 155z"/>
	<g>
		<g id="svg_5">
			<path id="svg_1" class="s1" d="m254.83 210.01c0 53.12-44.25 96.09-97.82 94.01-48.83-1.9-88.39-41.47-90.28-90.3-2.07-53.56 40.9-97.79 94.01-97.79q2.3 0 4.56 0.11 2.97 0.16 5.87 0.48c-4.47-16.51-19.3-28.9-36.89-29.76-10.76-0.53-20.66 3.19-28.18 9.62-1.48 1.28-3.63 1.43-5.33 0.48l-11.39-6.4c-2.29-1.28-2.76-4.4-0.93-6.28 11.13-11.39 26.66-18.47 43.81-18.47 33.81 0 61.3 27.5 61.3 61.3 0 9.77-2.3 19.02-6.38 27.23 19.8-14.47 32.22-38.44 30.5-65.15-2.43-37.73-33.3-67.93-71.07-69.59-40.15-1.77-73.78 28.4-77.58 67.17-0.14 1.46-0.92 2.78-2.16 3.57l-11.41 7.22c-2.73 1.73-6.29-0.23-6.29-3.46 0-53.12 44.25-96.09 97.82-94.01 48.83 1.9 88.39 41.48 90.28 90.3 2.07 53.57-40.9 97.79-94.01 97.79q-2.3 0-4.56-0.11-2.97-0.14-5.87-0.48c4.47 16.51 19.3 28.9 36.89 29.76 10.76 0.53 20.66-3.19 28.18-9.62 1.49-1.27 3.63-1.43 5.33-0.48l11.39 6.4c2.29 1.28 2.76 4.4 0.93 6.28-11.13 11.39-26.66 18.47-43.81 18.47-33.81 0-61.3-27.5-61.3-61.3 0-9.77 2.3-19.02 6.38-27.23-19.8 14.47-32.22 38.44-30.5 65.15 2.43 37.74 33.3 67.94 71.07 69.6 40.16 1.76 73.78-28.41 77.58-67.18 0.14-1.46 0.92-2.78 2.16-3.57l11.41-7.22c2.73-1.73 6.29 0.23 6.29 3.46z"/>
			<g id="svg_4">
				<path id="svg_2" fill-rule="evenodd" class="s2" d="m207.96 176.05v20.93l18.13 10.47 18.14-10.47v-20.93l-18.14-10.47-18.13 10.47z"/>
				<path id="svg_3" fill-rule="evenodd" class="s2" d="m96.04 127.96v-20.94l-18.13-10.46-18.13 10.46v20.94l18.13 10.47 18.13-10.47z"/>
			</g>
		</g>
	</g>
</svg>