<svg version="1.2" xmlns="http://www.w3.org/2000/svg" viewBox="0 0 512 512" width="512" height="512">
	<style>
		.s0 { fill: #00a8f3 } 
		.s1 { fill: #3f48d3 } 
	</style>
	<g>
		<g id="svg_5">
			<path id="svg_1" class="s0" d="m425.75 351.05c0 87.5-72.88 158.28-161.12 154.85-80.43-3.13-145.59-68.31-148.71-148.74-3.41-88.22 67.37-161.07 154.85-161.07q3.78 0 7.51 0.18 4.89 0.26 9.67 0.79c-7.36-27.19-31.79-47.6-60.76-49.02-17.72-0.87-34.03 5.26-46.42 15.85-2.44 2.1-5.98 2.35-8.78 0.79l-18.76-10.54c-3.77-2.11-4.54-7.25-1.53-10.35 18.33-18.76 43.91-30.42 72.16-30.42 55.69 0 100.97 45.29 100.97 100.97 0 16.09-3.79 31.33-10.51 44.85 32.62-23.83 53.07-63.32 50.24-107.31-4-62.15-54.85-111.89-117.06-114.63-66.14-2.91-121.53 46.78-127.79 110.64-0.23 2.41-1.51 4.58-3.56 5.88l-18.79 11.9c-4.5 2.84-10.36-0.38-10.36-5.7 0-87.5 72.89-158.28 161.12-154.85 80.43 3.13 145.59 68.32 148.71 148.74 3.41 88.23-67.37 161.07-154.85 161.07q-3.78 0-7.51-0.18-4.88-0.24-9.67-0.79c7.36 27.19 31.79 47.6 60.76 49.02 17.73 0.87 34.03-5.26 46.42-15.85 2.45-2.09 5.98-2.35 8.78-0.79l18.76 10.54c3.77 2.11 4.55 7.25 1.53 10.35-18.33 18.76-43.91 30.42-72.16 30.42-55.69 0-100.97-45.3-100.97-100.97 0-16.09 3.79-31.33 10.51-44.85-32.61 23.83-53.07 63.31-50.24 107.31 4 62.16 54.85 111.91 117.06 114.64 66.15 2.9 121.53-46.8 127.79-110.65 0.23-2.41 1.51-4.58 3.56-5.89l18.79-11.89c4.5-2.85 10.36 0.38 10.36 5.7z"/>
			<g id="svg_4">
				<path id="svg_2" fill-rule="evenodd" class="s1" d="m348.55 295.11v34.48l29.86 17.24 29.88-17.24v-34.48l-29.88-17.24-29.86 17.24z"/>
				<path id="svg_3" fill-rule="evenodd" class="s1" d="m164.2 215.9v-34.49l-29.86-17.23-29.86 17.23v34.49l29.86 17.25 29.86-17.25z"/>
			</g>
		</g>
	</g>
</svg>